<svg xmlns="http://www.w3.org/2000/svg" width="25.714" height="25.642" viewBox="0 0 25.714 25.642">
  <path id="Icon_ionic-md-settings" data-name="Icon ionic-md-settings" d="M25.053,16.928a7.705,7.705,0,0,0,.063-1.232c0-.431-.063-.8-.063-1.232L27.7,12.431a.566.566,0,0,0,.126-.8L25.3,7.379a.614.614,0,0,0-.756-.247L21.4,8.365a9.171,9.171,0,0,0-2.142-1.232l-.441-3.265a.675.675,0,0,0-.63-.493H13.144a.675.675,0,0,0-.63.493l-.5,3.265A10.67,10.67,0,0,0,9.867,8.365L6.717,7.133a.59.59,0,0,0-.756.247L3.44,11.63a.744.744,0,0,0,.126.8l2.71,2.033c0,.431-.063.8-.063,1.232s.063.8.063,1.232L3.63,18.961a.566.566,0,0,0-.126.8l2.52,4.251a.614.614,0,0,0,.756.247l3.151-1.232a9.17,9.17,0,0,0,2.142,1.232l.5,3.265a.611.611,0,0,0,.63.493h5.041a.675.675,0,0,0,.63-.493l.5-3.265a10.664,10.664,0,0,0,2.142-1.232l3.151,1.232a.59.59,0,0,0,.756-.247l2.52-4.251a.743.743,0,0,0-.126-.8Zm-9.389,3.08A4.313,4.313,0,1,1,20.075,15.7,4.335,4.335,0,0,1,15.665,20.008Z" transform="translate(-2.839 -2.875)" fill="none" stroke="#6a6a6a" stroke-width="1"/>
</svg>
