<svg xmlns="http://www.w3.org/2000/svg" width="31" height="31" viewBox="0 0 31 31">
  <path id="Icon_material-local-offer" data-name="Icon material-local-offer" d="M32.115,17.37l-13.5-13.5A2.981,2.981,0,0,0,16.5,3H6A3.009,3.009,0,0,0,3,6V16.5a2.993,2.993,0,0,0,.885,2.13l13.5,13.5A2.981,2.981,0,0,0,19.5,33a2.933,2.933,0,0,0,2.115-.885l10.5-10.5A2.933,2.933,0,0,0,33,19.5a3.03,3.03,0,0,0-.885-2.13ZM8.25,10.5A2.25,2.25,0,1,1,10.5,8.25,2.247,2.247,0,0,1,8.25,10.5Z" transform="translate(-2.5 -2.5)" fill="none" stroke="#000" stroke-width="1"/>
</svg>
