<svg xmlns="http://www.w3.org/2000/svg" width="31.289" height="23.055" viewBox="0 0 31.289 23.055">
  <path id="ic_view_comfy_24px" d="M3,11.587H9.587V5H3Zm0,8.234H9.587V13.234H3Zm8.234,0h6.587V13.234H11.234Zm8.234,0h6.587V13.234H19.468Zm-8.234-8.234h6.587V5H11.234ZM19.468,5v6.587h6.587V5ZM27.7,19.821h6.587V13.234H27.7ZM3,28.055H9.587V21.468H3Zm8.234,0h6.587V21.468H11.234Zm8.234,0h6.587V21.468H19.468Zm8.234,0h6.587V21.468H27.7ZM27.7,5v6.587h6.587V5Z" transform="translate(-3 -5)" fill="#6a6a6a"/>
</svg>
