<svg xmlns="http://www.w3.org/2000/svg" width="24.51" height="26.166" viewBox="0 0 24.51 26.166">
  <path id="Icon_material-event-note" data-name="Icon material-event-note" d="M23.174,13.05H9.835v2.567H23.174Zm2.668-8.983H24.508V1.5H21.84V4.067H11.169V1.5H8.5V4.067H7.168A2.606,2.606,0,0,0,4.513,6.633L4.5,24.6a2.618,2.618,0,0,0,2.668,2.567H25.842A2.626,2.626,0,0,0,28.51,24.6V6.633A2.626,2.626,0,0,0,25.842,4.067Zm0,20.533H7.168V10.483H25.842Zm-6.669-6.416H9.835v2.567h9.337Z" transform="translate(-4.25 -1.25)" fill="#6a6a6a" stroke="#9d9d9d" stroke-width="0.5"/>
</svg>
