<svg xmlns="http://www.w3.org/2000/svg" width="38.5" height="31" viewBox="0 0 38.5 31">
  <path id="Icon_awesome-sitemap" data-name="Icon awesome-sitemap" d="M7.5,20.625H1.875A1.875,1.875,0,0,0,0,22.5v5.625A1.875,1.875,0,0,0,1.875,30H7.5a1.875,1.875,0,0,0,1.875-1.875V22.5A1.875,1.875,0,0,0,7.5,20.625ZM6.094,15.938h11.25V18.75h2.813V15.938h11.25V18.75h2.813V15.376a2.253,2.253,0,0,0-2.251-2.251H20.156V9.375H22.5A1.875,1.875,0,0,0,24.375,7.5V1.875A1.875,1.875,0,0,0,22.5,0H15a1.875,1.875,0,0,0-1.875,1.875V7.5A1.875,1.875,0,0,0,15,9.375h2.344v3.75H5.532a2.253,2.253,0,0,0-2.251,2.251V18.75H6.094Zm15.469,4.688H15.938A1.875,1.875,0,0,0,14.063,22.5v5.625A1.875,1.875,0,0,0,15.938,30h5.625a1.875,1.875,0,0,0,1.875-1.875V22.5A1.875,1.875,0,0,0,21.563,20.625Zm14.063,0H30A1.875,1.875,0,0,0,28.125,22.5v5.625A1.875,1.875,0,0,0,30,30h5.625A1.875,1.875,0,0,0,37.5,28.125V22.5A1.875,1.875,0,0,0,35.625,20.625Z" transform="translate(0.5 0.5)" fill="none" stroke="#000" stroke-width="1"/>
</svg>
